# xmcd
#
# Track frame offsets:
#	183
#	12485
#	24875
#	33050
#	40888
#	50688
#	60488
#	71750
#	79788
#	88085
#	100258
#	111045
#	120718
#	131560
#	141580
#	151380
#	159663
#
# Disc length: 2275 seconds
#
# Revision: 3
# Processed by: cddbd v1.5.2PL0 Copyright (c) Steve Scherf et al.
# Submitted via: VUPlayer 2.49
#
DISCID=e208e111
DTITLE=Johnny Cash - The World of Johnny Cash
DYEAR=1991
DGENRE=Country
TTITLE0=I walk the line
TTITLE1=Folsom prison blues
TTITLE2=Sugartime
TTITLE3=Hey good lookin'
TTITLE4=Ballad of a teenage queen
TTITLE5=Hey Porter
TTITLE6=Big river
TTITLE7=Guess things happen that way
TTITLE8=Country boy
TTITLE9=Next in line
TTITLE10=Cold cold heart
TTITLE11=Rock island line
TTITLE12=The ways of a woman in love
TTITLE13=Get rhythm
TTITLE14=Born to loose
TTITLE15=Wreck of the old '97
TTITLE16=I love you because
EXTD=
EXTT0=
EXTT1=
EXTT2=
EXTT3=
EXTT4=
EXTT5=
EXTT6=
EXTT7=
EXTT8=
EXTT9=
EXTT10=
EXTT11=
EXTT12=
EXTT13=
EXTT14=
EXTT15=
EXTT16=
PLAYORDER=
